<?xml version="1.0" encoding="UTF-8" standalone="no"?>
<!-- Created with Inkscape (http://www.inkscape.org/) -->

<svg
   xmlns:dc="http://purl.org/dc/elements/1.1/"
   xmlns:cc="http://creativecommons.org/ns#"
   xmlns:rdf="http://www.w3.org/1999/02/22-rdf-syntax-ns#"
   xmlns:svg="http://www.w3.org/2000/svg"
   xmlns="http://www.w3.org/2000/svg"
   xmlns:sodipodi="http://sodipodi.sourceforge.net/DTD/sodipodi-0.dtd"
   xmlns:inkscape="http://www.inkscape.org/namespaces/inkscape"
   width="512"
   height="512"
   viewBox="0 0 135.46666 135.46667"
   version="1.1"
   id="svg8"
   inkscape:version="0.92.4 (5da689c313, 2019-01-14)"
   sodipodi:docname="logo_square.svg">
  <defs
     id="defs2" />
  <sodipodi:namedview
     id="base"
     pagecolor="#ffffff"
     bordercolor="#666666"
     borderopacity="1.0"
     inkscape:pageopacity="0.0"
     inkscape:pageshadow="2"
     inkscape:zoom="1.4"
     inkscape:cx="426.28269"
     inkscape:cy="315.98261"
     inkscape:document-units="mm"
     inkscape:current-layer="layer1"
     showgrid="false"
     units="px"
     showguides="true"
     inkscape:guide-bbox="true"
     inkscape:window-width="3836"
     inkscape:window-height="2128"
     inkscape:window-x="0"
     inkscape:window-y="0"
     inkscape:window-maximized="0" />
  <metadata
     id="metadata5">
    <rdf:RDF>
      <cc:Work
         rdf:about="">
        <dc:format>image/svg+xml</dc:format>
        <dc:type
           rdf:resource="http://purl.org/dc/dcmitype/StillImage" />
        <dc:title></dc:title>
      </cc:Work>
    </rdf:RDF>
  </metadata>
  <g
     inkscape:label="Ebene 1"
     inkscape:groupmode="layer"
     id="layer1"
     transform="translate(0,-161.53332)">
    <rect
       style="opacity:1;fill:#ff6f00;fill-opacity:1;fill-rule:evenodd;stroke:#000000;stroke-width:0.285;stroke-miterlimit:4;stroke-dasharray:none;stroke-opacity:1"
       id="rect815"
       width="123.22024"
       height="123.59821"
       x="6.1232142"
       y="167.46754"
       rx="13.229167"
       ry="13.229167" />
    <flowRoot
       xml:space="preserve"
       id="flowRoot817"
       style="font-style:normal;font-variant:normal;font-weight:normal;font-stretch:normal;font-size:64px;line-height:125%;font-family:'Clear Sans';-inkscape-font-specification:'Clear Sans';letter-spacing:0px;word-spacing:0px;fill:#ffffff;fill-opacity:1;stroke:#000000;stroke-width:1px;stroke-linecap:butt;stroke-linejoin:miter;stroke-opacity:1"
       transform="matrix(0.26458333,0,0,0.26458333,-3.2765431,223.44222)"><flowRegion
         id="flowRegion819"
         style="fill:#ffffff;stroke:#000000;stroke-opacity:1"><rect
           id="rect821"
           width="416.42856"
           height="85.714294"
           x="57.857143"
           y="62.357143"
           style="fill:#ffffff;stroke:#000000;stroke-opacity:1" /></flowRegion><flowPara
         id="flowPara825"
         style="font-style:normal;font-variant:normal;font-weight:normal;font-stretch:normal;font-size:64px;line-height:100.19999743%;font-family:'Helvetica Neue';-inkscape-font-specification:'Helvetica Neue';text-align:center;text-anchor:middle;fill:#ffffff;stroke:#000000;stroke-opacity:1">RESIDENTIAL</flowPara></flowRoot>    <flowRoot
       xml:space="preserve"
       id="flowRoot829"
       style="font-style:normal;font-variant:normal;font-weight:normal;font-stretch:normal;font-size:74.66666412px;line-height:125%;font-family:'Clear Sans';-inkscape-font-specification:'Clear Sans';text-align:center;letter-spacing:0px;word-spacing:0px;text-anchor:middle;fill:#ffffff;fill-opacity:1;stroke:#000000;stroke-width:0.86983597px;stroke-linecap:butt;stroke-linejoin:miter;stroke-opacity:1"
       transform="matrix(0.30386056,0,0,0.304492,-9.5699997,173.0636)"><flowRegion
         id="flowRegion831"
         style="font-size:74.66666412px;text-align:center;text-anchor:middle;fill:#ffffff;stroke:#000000;stroke-width:0.86983597px;stroke-opacity:1"><rect
           id="rect833"
           width="367.14285"
           height="156.07143"
           x="68.571426"
           y="271.28571"
           style="font-size:74.66666412px;text-align:center;text-anchor:middle;fill:#ffffff;stroke:#000000;stroke-width:0.86983597px;stroke-opacity:1" /></flowRegion><flowPara
         id="flowPara837"
         style="stroke-width:0.86983597px">REPORTER</flowPara></flowRoot>    <g
       id="g1512"
       style="fill:#ffffff;stroke:#000000;stroke-opacity:1"
       transform="translate(1.2654548,2.6458356)">
      <path
         style="fill:#ffffff;stroke:#000000;stroke-width:0.26458332;stroke-opacity:1"
         id="path927"
         d="m 90.065688,223.55561 v -37.71582 l -23.5192,7.83972 v 37.71581 z m -7.024314,-32.30077 4.735285,-1.57844 v 7.89216 l -4.735285,1.57841 z m 0,10.25977 4.735285,-1.5784 v 7.89213 l -4.735285,1.57844 z m 0,10.25981 4.735285,-1.57844 v 7.89214 l -4.735285,1.57843 z m -7.102928,-18.15194 4.735285,-1.57844 v 7.89217 l -4.735285,1.5784 z m 0,10.25978 4.735285,-1.57841 v 7.89213 l -4.735285,1.57844 z m 0,10.25981 4.735285,-1.57844 v 12.62741 l -4.735285,1.57844 z m -7.102924,-18.15194 4.735281,-1.57844 v 7.89216 l -4.735281,1.57841 z m 0,10.25977 4.735281,-1.57841 v 7.89214 l -4.735281,1.57844 z m 0,10.25981 4.735281,-1.57844 v 7.89213 l -4.735281,1.57844 z"
         inkscape:connector-curvature="0" />
      <path
         style="fill:#ffffff;stroke:#000000;stroke-width:0.26458332;stroke-opacity:1"
         id="path929"
         d="m 42.870063,223.55561 23.519203,7.83971 v -37.71581 l -23.519199,-7.83972 z m 16.494888,-29.14392 4.735285,1.57844 v 7.89213 l -4.735285,-1.57841 z m 0,10.2598 4.735285,1.57841 v 7.89217 l -4.735285,-1.57844 z m 0,10.25978 4.735285,1.57844 v 7.89213 l -4.735285,-1.57844 z m -7.102928,-22.88723 4.735285,1.57844 v 7.89213 l -4.735285,-1.5784 z m 0,10.25981 4.735285,1.57841 v 7.89216 l -4.735285,-1.57844 z m 0,10.25978 4.735285,1.57844 v 7.89213 l -4.735285,-1.57844 z m -7.102931,-22.88723 4.735286,1.57844 v 7.89213 l -4.735286,-1.57841 z m 0,10.25981 4.735286,1.5784 v 7.89217 l -4.735286,-1.57844 z m 0,10.25977 4.735286,1.57844 v 7.89213 l -4.735286,-1.57843 z"
         inkscape:connector-curvature="0" />
      <polygon
         style="fill:#ffffff;stroke:#000000;stroke-width:0.33524907;stroke-opacity:1"
         id="polygon931"
         points="50,16.122 20.316,26.017 50,35.910999 79.683998,26.017 "
         transform="matrix(0.78921419,0,0,0.78921419,27.00717,165.19768)" />
    </g>
  </g>
</svg>
