<?xml version="1.0" encoding="UTF-8" standalone="no"?>
<svg
   xmlns:dc="http://purl.org/dc/elements/1.1/"
   xmlns:cc="http://creativecommons.org/ns#"
   xmlns:rdf="http://www.w3.org/1999/02/22-rdf-syntax-ns#"
   xmlns:svg="http://www.w3.org/2000/svg"
   xmlns="http://www.w3.org/2000/svg"
   xmlns:sodipodi="http://sodipodi.sourceforge.net/DTD/sodipodi-0.dtd"
   xmlns:inkscape="http://www.inkscape.org/namespaces/inkscape"
   version="1.1"
   x="0px"
   y="0px"
   viewBox="0 0 100 100"
   xml:space="preserve"
   id="svg14"
   sodipodi:docname="building_optimized.svg"
   width="100"
   height="100"
   inkscape:version="0.92.4 (5da689c313, 2019-01-14)"><metadata
     id="metadata20"><rdf:RDF><cc:Work
         rdf:about=""><dc:format>image/svg+xml</dc:format><dc:type
           rdf:resource="http://purl.org/dc/dcmitype/StillImage" /><dc:title>Building</dc:title></cc:Work></rdf:RDF></metadata><defs
     id="defs18" /><sodipodi:namedview
     pagecolor="#ffffff"
     bordercolor="#666666"
     borderopacity="1"
     objecttolerance="10"
     gridtolerance="10"
     guidetolerance="10"
     inkscape:pageopacity="0"
     inkscape:pageshadow="2"
     inkscape:window-width="3836"
     inkscape:window-height="2128"
     id="namedview16"
     showgrid="false"
     inkscape:zoom="10.680141"
     inkscape:cx="46.842147"
     inkscape:cy="87.687355"
     inkscape:window-x="0"
     inkscape:window-y="0"
     inkscape:window-maximized="0"
     inkscape:current-layer="svg14" /><title
     id="title2">Building</title><g
     id="g830"
     transform="matrix(1.3264344,0,0,1.3256877,-16.288998,16.772693)"
     style="stroke-width:0.75411314"><path
       inkscape:connector-curvature="0"
       style="fill:#ffffff;stroke:#ff6f00;stroke-width:0.75411314;stroke-opacity:1"
       id="path4"
       d="M 79.900391,48.944344 V 1.15527 L 50.099609,11.088871 V 58.87793 Z M 71,8.016602 l 6,-2 v 10 l -6,2 z m 0,13 6,-2 v 10 l -6,2 z m 0,13 6,-2 v 10 l -6,2 z m -9,-23 6,-2 v 10 l -6,2 z m 0,13 6,-2 v 10 l -6,2 z m 0,13 6,-2 v 16 l -6,2 z m -9,-23 6,-2 v 10 l -6,2 z m 0,13 6,-2 v 10 l -6,2 z m 0,13 6,-2 v 10 l -6,2 z" /><path
       inkscape:connector-curvature="0"
       style="fill:#ffffff;stroke:#ff6f00;stroke-width:0.75411314;stroke-opacity:1"
       id="path6"
       d="M 20.099609,48.944344 49.900391,58.87793 V 11.088871 L 20.099611,1.15527 Z M 41,12.016602 l 6,2 v 10 l -6,-2 z m 0,13 6,2 v 10 l -6,-2 z m 0,13 6,2 v 10 l -6,-2 z m -9,-29 6,2 v 10 l -6,-2 z m 0,13 6,2 v 10 l -6,-2 z m 0,13 6,2 v 10 l -6,-2 z m -9,-29 6,2 v 10 l -6,-2 z m 0,13 6,2 v 10 l -6,-2 z m 0,13 6,2 v 10 l -6,-2 z" /><polygon
       transform="matrix(0.97288584,0,0,0.9754014,1.3310409,-24.640926)"
       style="fill:#ffffff;stroke:#ff6f00;stroke-width:0.77413005;stroke-opacity:1"
       id="polygon8"
       points="50,35.910999 79.683998,26.017 50,16.122 20.316,26.017 " /></g></svg>