<svg xmlns="http://www.w3.org/2000/svg" xmlns:xlink="http://www.w3.org/1999/xlink" version="1.1" x="0px" y="0px" viewBox="0 0 100 125" style="enable-background:new 0 0 100 100;" xml:space="preserve"><title>Building</title><path d="M79.9003906,73.9443436V26.1552696L50.0996094,36.088871v47.7890587L79.9003906,73.9443436z M71,33.0166016l6-2v10l-6,2  V33.0166016z M71,46.0166016l6-2v10l-6,2V46.0166016z M71,59.0166016l6-2v10l-6,2V59.0166016z M62,36.0166016l6-2v10l-6,2  V36.0166016z M62,49.0166016l6-2v10l-6,2V49.0166016z M62,62.0166016l6-2v16l-6,2V62.0166016z M53,39.0166016l6-2v10l-6,2  V39.0166016z M53,52.0166016l6-2v10l-6,2V52.0166016z M53,65.0166016l6-2v10l-6,2V65.0166016z"/><path d="M20.0996094,73.9443436l29.8007812,9.9335861V36.088871l-29.8007793-9.9336014L20.0996094,73.9443436z M41,37.0166016l6,2  v10l-6-2V37.0166016z M41,50.0166016l6,2v10l-6-2V50.0166016z M41,63.0166016l6,2v10l-6-2V63.0166016z M32,34.0166016l6,2v10l-6-2  V34.0166016z M32,47.0166016l6,2v10l-6-2V47.0166016z M32,60.0166016l6,2v10l-6-2V60.0166016z M23,31.0166016l6,2v10l-6-2  V31.0166016z M23,44.0166016l6,2v10l-6-2V44.0166016z M23,57.0166016l6,2v10l-6-2V57.0166016z"/><polygon points="79.6839981,26.0170002 50,16.1219997 20.316,26.0170002 50,35.9109993 "/><text x="0" y="115" fill="#000000" font-size="5px" font-weight="bold" font-family="'Helvetica Neue', Helvetica, Arial-Unicode, Arial, Sans-serif">Created by Brad Avison</text><text x="0" y="120" fill="#000000" font-size="5px" font-weight="bold" font-family="'Helvetica Neue', Helvetica, Arial-Unicode, Arial, Sans-serif">from the Noun Project</text></svg>